<mxfile host="app.diagrams.net" modified="2021-03-14T03:46:38.811Z" agent="5.0 (Macintosh; Intel Mac OS X 10_15_6) AppleWebKit/605.1.15 (KHTML, like Gecko) Version/13.1.2 Safari/605.1.15" etag="P-Ga6CxwlSR3mAQHAEG0" version="14.4.8" type="github">
  <diagram id="hrapu5nMpfRwX1OLdvwb" name="Page-1">
    <mxGraphModel dx="1992" dy="1326" grid="1" gridSize="10" guides="1" tooltips="1" connect="1" arrows="1" fold="1" page="1" pageScale="1" pageWidth="2339" pageHeight="3300" math="0" shadow="0">
      <root>
        <mxCell id="0" />
        <mxCell id="1" parent="0" />
        <mxCell id="FcauZY5X2lJRklO2oorI-25" value="" style="ellipse;whiteSpace=wrap;html=1;aspect=fixed;" vertex="1" parent="1">
          <mxGeometry x="200" y="780" width="80" height="80" as="geometry" />
        </mxCell>
        <mxCell id="FcauZY5X2lJRklO2oorI-29" value="" style="endArrow=classic;html=1;entryX=0.575;entryY=0.8;entryDx=0;entryDy=0;entryPerimeter=0;" edge="1" parent="1" source="FcauZY5X2lJRklO2oorI-25">
          <mxGeometry width="50" height="50" relative="1" as="geometry">
            <mxPoint x="420" y="850" as="sourcePoint" />
            <mxPoint x="342" y="763" as="targetPoint" />
          </mxGeometry>
        </mxCell>
        <mxCell id="FcauZY5X2lJRklO2oorI-31" value="" style="line;strokeWidth=2;direction=south;html=1;" vertex="1" parent="1">
          <mxGeometry x="340" y="830" width="10" height="40" as="geometry" />
        </mxCell>
        <mxCell id="FcauZY5X2lJRklO2oorI-32" value="" style="endArrow=classic;html=1;exitX=1;exitY=0.5;exitDx=0;exitDy=0;entryX=0.475;entryY=0.8;entryDx=0;entryDy=0;entryPerimeter=0;" edge="1" parent="1" source="FcauZY5X2lJRklO2oorI-25" target="FcauZY5X2lJRklO2oorI-31">
          <mxGeometry width="50" height="50" relative="1" as="geometry">
            <mxPoint x="420" y="850" as="sourcePoint" />
            <mxPoint x="470" y="800" as="targetPoint" />
          </mxGeometry>
        </mxCell>
        <mxCell id="FcauZY5X2lJRklO2oorI-35" value="" style="endArrow=classic;html=1;exitX=0;exitY=0.5;exitDx=0;exitDy=0;entryX=0.429;entryY=0.9;entryDx=0;entryDy=0;entryPerimeter=0;" edge="1" parent="1" source="FcauZY5X2lJRklO2oorI-25" target="FcauZY5X2lJRklO2oorI-36">
          <mxGeometry width="50" height="50" relative="1" as="geometry">
            <mxPoint x="280" y="850" as="sourcePoint" />
            <mxPoint x="120" y="920" as="targetPoint" />
          </mxGeometry>
        </mxCell>
        <mxCell id="FcauZY5X2lJRklO2oorI-36" value="" style="line;strokeWidth=2;html=1;" vertex="1" parent="1">
          <mxGeometry x="140" y="950" width="70" height="10" as="geometry" />
        </mxCell>
        <mxCell id="FcauZY5X2lJRklO2oorI-39" value="" style="line;strokeWidth=2;direction=south;html=1;" vertex="1" parent="1">
          <mxGeometry x="340" y="740" width="10" height="40" as="geometry" />
        </mxCell>
        <mxCell id="FcauZY5X2lJRklO2oorI-40" value="" style="ellipse;whiteSpace=wrap;html=1;aspect=fixed;" vertex="1" parent="1">
          <mxGeometry x="20" y="800" width="80" height="80" as="geometry" />
        </mxCell>
        <mxCell id="FcauZY5X2lJRklO2oorI-45" value="" style="line;strokeWidth=2;direction=south;html=1;rotation=30;" vertex="1" parent="1">
          <mxGeometry x="110" y="850" width="10" height="70" as="geometry" />
        </mxCell>
        <mxCell id="FcauZY5X2lJRklO2oorI-47" value="" style="endArrow=classic;html=1;entryX=0.415;entryY=0.267;entryDx=0;entryDy=0;entryPerimeter=0;exitX=0.457;exitY=0.9;exitDx=0;exitDy=0;exitPerimeter=0;" edge="1" parent="1" source="FcauZY5X2lJRklO2oorI-36" target="FcauZY5X2lJRklO2oorI-45">
          <mxGeometry width="50" height="50" relative="1" as="geometry">
            <mxPoint x="280" y="850" as="sourcePoint" />
            <mxPoint x="330" y="800" as="targetPoint" />
          </mxGeometry>
        </mxCell>
        <mxCell id="FcauZY5X2lJRklO2oorI-48" value="" style="endArrow=classic;html=1;entryX=1;entryY=1;entryDx=0;entryDy=0;" edge="1" parent="1" target="FcauZY5X2lJRklO2oorI-40">
          <mxGeometry width="50" height="50" relative="1" as="geometry">
            <mxPoint x="120" y="880" as="sourcePoint" />
            <mxPoint x="330" y="800" as="targetPoint" />
          </mxGeometry>
        </mxCell>
        <mxCell id="FcauZY5X2lJRklO2oorI-49" value="" style="ellipse;whiteSpace=wrap;html=1;aspect=fixed;" vertex="1" parent="1">
          <mxGeometry x="250" y="660" width="80" height="80" as="geometry" />
        </mxCell>
        <mxCell id="FcauZY5X2lJRklO2oorI-55" value="T2" style="text;html=1;strokeColor=none;fillColor=none;align=center;verticalAlign=middle;whiteSpace=wrap;rounded=0;" vertex="1" parent="1">
          <mxGeometry x="330" y="875" width="40" height="20" as="geometry" />
        </mxCell>
        <mxCell id="FcauZY5X2lJRklO2oorI-56" value="T1" style="text;html=1;strokeColor=none;fillColor=none;align=center;verticalAlign=middle;whiteSpace=wrap;rounded=0;" vertex="1" parent="1">
          <mxGeometry x="330" y="720" width="40" height="20" as="geometry" />
        </mxCell>
        <mxCell id="FcauZY5X2lJRklO2oorI-57" value="" style="endArrow=classic;html=1;entryX=0.337;entryY=0.121;entryDx=0;entryDy=0;entryPerimeter=0;exitX=0.025;exitY=0.638;exitDx=0;exitDy=0;exitPerimeter=0;fillColor=#f8cecc;strokeColor=#FF0000;" edge="1" parent="1" source="FcauZY5X2lJRklO2oorI-49" target="FcauZY5X2lJRklO2oorI-45">
          <mxGeometry width="50" height="50" relative="1" as="geometry">
            <mxPoint x="500" y="850" as="sourcePoint" />
            <mxPoint x="550" y="800" as="targetPoint" />
          </mxGeometry>
        </mxCell>
        <mxCell id="FcauZY5X2lJRklO2oorI-58" value="P1: A_turn_ready&lt;br&gt;" style="text;html=1;strokeColor=none;fillColor=none;align=center;verticalAlign=middle;whiteSpace=wrap;rounded=0;" vertex="1" parent="1">
          <mxGeometry x="220" y="875" width="40" height="20" as="geometry" />
        </mxCell>
        <mxCell id="FcauZY5X2lJRklO2oorI-59" value="P19: A_HP" style="text;html=1;strokeColor=none;fillColor=none;align=center;verticalAlign=middle;whiteSpace=wrap;rounded=0;" vertex="1" parent="1">
          <mxGeometry x="270" y="630" width="40" height="20" as="geometry" />
        </mxCell>
        <mxCell id="FcauZY5X2lJRklO2oorI-60" value="P21: A_Wins" style="text;html=1;strokeColor=none;fillColor=none;align=center;verticalAlign=middle;whiteSpace=wrap;rounded=0;" vertex="1" parent="1">
          <mxGeometry x="40" y="890" width="40" height="20" as="geometry" />
        </mxCell>
        <mxCell id="FcauZY5X2lJRklO2oorI-61" value="&lt;font&gt;&lt;font style=&quot;font-size: 20px&quot; color=&quot;#ff0000&quot;&gt;6&lt;/font&gt;&lt;br&gt;&lt;/font&gt;" style="text;html=1;strokeColor=none;fillColor=none;align=center;verticalAlign=middle;whiteSpace=wrap;rounded=0;" vertex="1" parent="1">
          <mxGeometry x="125" y="770" width="85" height="40" as="geometry" />
        </mxCell>
        <mxCell id="FcauZY5X2lJRklO2oorI-63" value="" style="ellipse;whiteSpace=wrap;html=1;aspect=fixed;" vertex="1" parent="1">
          <mxGeometry x="420" y="720" width="80" height="80" as="geometry" />
        </mxCell>
        <mxCell id="FcauZY5X2lJRklO2oorI-64" value="" style="endArrow=classic;html=1;exitX=0.45;exitY=0.5;exitDx=0;exitDy=0;exitPerimeter=0;entryX=0;entryY=0.5;entryDx=0;entryDy=0;" edge="1" parent="1" source="FcauZY5X2lJRklO2oorI-39" target="FcauZY5X2lJRklO2oorI-63">
          <mxGeometry width="50" height="50" relative="1" as="geometry">
            <mxPoint x="450" y="800" as="sourcePoint" />
            <mxPoint x="500" y="750" as="targetPoint" />
          </mxGeometry>
        </mxCell>
        <mxCell id="FcauZY5X2lJRklO2oorI-65" value="P2: A_attack" style="text;html=1;strokeColor=none;fillColor=none;align=center;verticalAlign=middle;whiteSpace=wrap;rounded=0;" vertex="1" parent="1">
          <mxGeometry x="440" y="690" width="40" height="20" as="geometry" />
        </mxCell>
        <mxCell id="FcauZY5X2lJRklO2oorI-66" value="" style="endArrow=classic;html=1;strokeColor=#000000;exitX=0.6;exitY=0.5;exitDx=0;exitDy=0;exitPerimeter=0;entryX=0;entryY=0.5;entryDx=0;entryDy=0;" edge="1" parent="1" source="FcauZY5X2lJRklO2oorI-31" target="FcauZY5X2lJRklO2oorI-68">
          <mxGeometry width="50" height="50" relative="1" as="geometry">
            <mxPoint x="349" y="853" as="sourcePoint" />
            <mxPoint x="450" y="853" as="targetPoint" />
          </mxGeometry>
        </mxCell>
        <mxCell id="FcauZY5X2lJRklO2oorI-68" value="" style="ellipse;whiteSpace=wrap;html=1;aspect=fixed;" vertex="1" parent="1">
          <mxGeometry x="420" y="815" width="80" height="80" as="geometry" />
        </mxCell>
        <mxCell id="FcauZY5X2lJRklO2oorI-69" value="P3: A_critical_attack" style="text;html=1;strokeColor=none;fillColor=none;align=center;verticalAlign=middle;whiteSpace=wrap;rounded=0;" vertex="1" parent="1">
          <mxGeometry x="440" y="900" width="40" height="20" as="geometry" />
        </mxCell>
        <mxCell id="FcauZY5X2lJRklO2oorI-70" value="" style="line;strokeWidth=2;direction=south;html=1;" vertex="1" parent="1">
          <mxGeometry x="570" y="830" width="10" height="40" as="geometry" />
        </mxCell>
        <mxCell id="FcauZY5X2lJRklO2oorI-79" style="edgeStyle=orthogonalEdgeStyle;rounded=0;orthogonalLoop=1;jettySize=auto;html=1;entryX=0;entryY=0.5;entryDx=0;entryDy=0;strokeColor=#000000;exitX=0.25;exitY=0.5;exitDx=0;exitDy=0;exitPerimeter=0;" edge="1" parent="1" source="FcauZY5X2lJRklO2oorI-71" target="FcauZY5X2lJRklO2oorI-83">
          <mxGeometry relative="1" as="geometry">
            <mxPoint x="748" y="852" as="sourcePoint" />
            <mxPoint x="804" y="852" as="targetPoint" />
          </mxGeometry>
        </mxCell>
        <mxCell id="FcauZY5X2lJRklO2oorI-71" value="" style="line;strokeWidth=2;direction=south;html=1;" vertex="1" parent="1">
          <mxGeometry x="740" y="830" width="10" height="40" as="geometry" />
        </mxCell>
        <mxCell id="FcauZY5X2lJRklO2oorI-73" value="" style="endArrow=classic;html=1;strokeColor=#000000;exitX=1;exitY=0.5;exitDx=0;exitDy=0;entryX=0.55;entryY=0.6;entryDx=0;entryDy=0;entryPerimeter=0;" edge="1" parent="1" source="FcauZY5X2lJRklO2oorI-68" target="FcauZY5X2lJRklO2oorI-70">
          <mxGeometry width="50" height="50" relative="1" as="geometry">
            <mxPoint x="355" y="864" as="sourcePoint" />
            <mxPoint x="577" y="850" as="targetPoint" />
          </mxGeometry>
        </mxCell>
        <mxCell id="FcauZY5X2lJRklO2oorI-74" value="T3" style="text;html=1;strokeColor=none;fillColor=none;align=center;verticalAlign=middle;whiteSpace=wrap;rounded=0;" vertex="1" parent="1">
          <mxGeometry x="555" y="870" width="40" height="20" as="geometry" />
        </mxCell>
        <mxCell id="FcauZY5X2lJRklO2oorI-75" value="" style="ellipse;whiteSpace=wrap;html=1;aspect=fixed;" vertex="1" parent="1">
          <mxGeometry x="620" y="810" width="80" height="80" as="geometry" />
        </mxCell>
        <mxCell id="FcauZY5X2lJRklO2oorI-76" value="" style="endArrow=classic;html=1;strokeColor=#000000;exitX=0.55;exitY=0.7;exitDx=0;exitDy=0;entryX=0;entryY=0.5;entryDx=0;entryDy=0;exitPerimeter=0;" edge="1" parent="1" source="FcauZY5X2lJRklO2oorI-70" target="FcauZY5X2lJRklO2oorI-75">
          <mxGeometry width="50" height="50" relative="1" as="geometry">
            <mxPoint x="510" y="865" as="sourcePoint" />
            <mxPoint x="584" y="862" as="targetPoint" />
          </mxGeometry>
        </mxCell>
        <mxCell id="FcauZY5X2lJRklO2oorI-77" value="" style="endArrow=classic;html=1;strokeColor=#000000;entryX=0.475;entryY=0.3;entryDx=0;entryDy=0;entryPerimeter=0;" edge="1" parent="1" target="FcauZY5X2lJRklO2oorI-71">
          <mxGeometry width="50" height="50" relative="1" as="geometry">
            <mxPoint x="700" y="849" as="sourcePoint" />
            <mxPoint x="620" y="860" as="targetPoint" />
          </mxGeometry>
        </mxCell>
        <mxCell id="FcauZY5X2lJRklO2oorI-81" value="&lt;font color=&quot;#ff0000&quot;&gt;T18&lt;/font&gt;" style="text;html=1;strokeColor=none;fillColor=none;align=center;verticalAlign=middle;whiteSpace=wrap;rounded=0;" vertex="1" parent="1">
          <mxGeometry x="725" y="870" width="40" height="20" as="geometry" />
        </mxCell>
        <mxCell id="FcauZY5X2lJRklO2oorI-82" value="&lt;font color=&quot;#ff0000&quot;&gt;P17:&amp;nbsp;&lt;br&gt;check_B_HP&lt;/font&gt;" style="text;html=1;strokeColor=none;fillColor=none;align=center;verticalAlign=middle;whiteSpace=wrap;rounded=0;" vertex="1" parent="1">
          <mxGeometry x="640" y="895" width="40" height="20" as="geometry" />
        </mxCell>
        <mxCell id="FcauZY5X2lJRklO2oorI-83" value="" style="ellipse;whiteSpace=wrap;html=1;aspect=fixed;" vertex="1" parent="1">
          <mxGeometry x="810" y="810" width="80" height="80" as="geometry" />
        </mxCell>
        <mxCell id="FcauZY5X2lJRklO2oorI-84" value="P4: A_critical_attack_judgement" style="text;html=1;strokeColor=none;fillColor=none;align=center;verticalAlign=middle;whiteSpace=wrap;rounded=0;" vertex="1" parent="1">
          <mxGeometry x="840" y="895" width="40" height="20" as="geometry" />
        </mxCell>
        <mxCell id="FcauZY5X2lJRklO2oorI-85" value="" style="ellipse;whiteSpace=wrap;html=1;aspect=fixed;" vertex="1" parent="1">
          <mxGeometry x="1030" y="865" width="80" height="80" as="geometry" />
        </mxCell>
        <mxCell id="FcauZY5X2lJRklO2oorI-86" value="" style="endArrow=classic;html=1;strokeColor=#000000;exitX=1;exitY=0.5;exitDx=0;exitDy=0;entryX=0.525;entryY=0.5;entryDx=0;entryDy=0;entryPerimeter=0;" edge="1" parent="1" source="FcauZY5X2lJRklO2oorI-83" target="FcauZY5X2lJRklO2oorI-89">
          <mxGeometry width="50" height="50" relative="1" as="geometry">
            <mxPoint x="950" y="740" as="sourcePoint" />
            <mxPoint x="960" y="800" as="targetPoint" />
          </mxGeometry>
        </mxCell>
        <mxCell id="FcauZY5X2lJRklO2oorI-87" value="" style="endArrow=classic;html=1;strokeColor=#000000;exitX=1;exitY=0.5;exitDx=0;exitDy=0;entryX=0.575;entryY=0.6;entryDx=0;entryDy=0;entryPerimeter=0;" edge="1" parent="1" source="FcauZY5X2lJRklO2oorI-83" target="FcauZY5X2lJRklO2oorI-90">
          <mxGeometry width="50" height="50" relative="1" as="geometry">
            <mxPoint x="900" y="860" as="sourcePoint" />
            <mxPoint x="960" y="880" as="targetPoint" />
          </mxGeometry>
        </mxCell>
        <mxCell id="FcauZY5X2lJRklO2oorI-88" value="" style="ellipse;whiteSpace=wrap;html=1;aspect=fixed;" vertex="1" parent="1">
          <mxGeometry x="1030" y="760" width="80" height="80" as="geometry" />
        </mxCell>
        <mxCell id="FcauZY5X2lJRklO2oorI-89" value="" style="line;strokeWidth=2;direction=south;html=1;" vertex="1" parent="1">
          <mxGeometry x="960" y="780" width="10" height="40" as="geometry" />
        </mxCell>
        <mxCell id="FcauZY5X2lJRklO2oorI-90" value="" style="line;strokeWidth=2;direction=south;html=1;" vertex="1" parent="1">
          <mxGeometry x="960" y="860" width="10" height="40" as="geometry" />
        </mxCell>
        <mxCell id="FcauZY5X2lJRklO2oorI-91" value="T5" style="text;html=1;strokeColor=none;fillColor=none;align=center;verticalAlign=middle;whiteSpace=wrap;rounded=0;" vertex="1" parent="1">
          <mxGeometry x="945" y="900" width="40" height="20" as="geometry" />
        </mxCell>
        <mxCell id="FcauZY5X2lJRklO2oorI-92" value="T4" style="text;html=1;strokeColor=none;fillColor=none;align=center;verticalAlign=middle;whiteSpace=wrap;rounded=0;" vertex="1" parent="1">
          <mxGeometry x="945" y="760" width="40" height="20" as="geometry" />
        </mxCell>
        <mxCell id="FcauZY5X2lJRklO2oorI-93" value="" style="endArrow=classic;html=1;strokeColor=#000000;entryX=0;entryY=0.5;entryDx=0;entryDy=0;exitX=0.5;exitY=0.6;exitDx=0;exitDy=0;exitPerimeter=0;" edge="1" parent="1" source="FcauZY5X2lJRklO2oorI-89" target="FcauZY5X2lJRklO2oorI-88">
          <mxGeometry width="50" height="50" relative="1" as="geometry">
            <mxPoint x="967" y="800" as="sourcePoint" />
            <mxPoint x="975" y="811" as="targetPoint" />
          </mxGeometry>
        </mxCell>
        <mxCell id="FcauZY5X2lJRklO2oorI-94" value="" style="endArrow=classic;html=1;strokeColor=#000000;entryX=0;entryY=0.5;entryDx=0;entryDy=0;exitX=0.25;exitY=0.5;exitDx=0;exitDy=0;exitPerimeter=0;" edge="1" parent="1" source="FcauZY5X2lJRklO2oorI-90" target="FcauZY5X2lJRklO2oorI-85">
          <mxGeometry width="50" height="50" relative="1" as="geometry">
            <mxPoint x="974" y="810" as="sourcePoint" />
            <mxPoint x="1040" y="810" as="targetPoint" />
          </mxGeometry>
        </mxCell>
        <mxCell id="FcauZY5X2lJRklO2oorI-96" value="P5: A_critical_attack_succeeds&lt;br&gt;" style="text;html=1;strokeColor=none;fillColor=none;align=center;verticalAlign=middle;whiteSpace=wrap;rounded=0;" vertex="1" parent="1">
          <mxGeometry x="1170" y="795" width="40" height="20" as="geometry" />
        </mxCell>
        <mxCell id="FcauZY5X2lJRklO2oorI-97" value="P6: A_critical_attack_fails" style="text;html=1;strokeColor=none;fillColor=none;align=center;verticalAlign=middle;whiteSpace=wrap;rounded=0;" vertex="1" parent="1">
          <mxGeometry x="1050" y="960" width="40" height="20" as="geometry" />
        </mxCell>
        <mxCell id="FcauZY5X2lJRklO2oorI-98" value="" style="endArrow=classic;html=1;strokeColor=#000000;exitX=1;exitY=0.5;exitDx=0;exitDy=0;entryX=0.25;entryY=0.5;entryDx=0;entryDy=0;entryPerimeter=0;" edge="1" parent="1" source="FcauZY5X2lJRklO2oorI-63" target="FcauZY5X2lJRklO2oorI-104">
          <mxGeometry width="50" height="50" relative="1" as="geometry">
            <mxPoint x="730" y="750" as="sourcePoint" />
            <mxPoint x="880" y="680" as="targetPoint" />
          </mxGeometry>
        </mxCell>
        <mxCell id="FcauZY5X2lJRklO2oorI-101" value="" style="endArrow=classic;html=1;strokeColor=#000000;exitX=0.5;exitY=0;exitDx=0;exitDy=0;entryX=0.45;entryY=0.6;entryDx=0;entryDy=0;entryPerimeter=0;" edge="1" parent="1" source="FcauZY5X2lJRklO2oorI-88" target="FcauZY5X2lJRklO2oorI-104">
          <mxGeometry width="50" height="50" relative="1" as="geometry">
            <mxPoint x="1010" y="660" as="sourcePoint" />
            <mxPoint x="890" y="680" as="targetPoint" />
          </mxGeometry>
        </mxCell>
        <mxCell id="FcauZY5X2lJRklO2oorI-103" value="" style="endArrow=classic;html=1;strokeColor=#000000;exitX=1;exitY=0.5;exitDx=0;exitDy=0;entryX=0.75;entryY=0.5;entryDx=0;entryDy=0;entryPerimeter=0;" edge="1" parent="1" source="FcauZY5X2lJRklO2oorI-85" target="FcauZY5X2lJRklO2oorI-104">
          <mxGeometry width="50" height="50" relative="1" as="geometry">
            <mxPoint x="1010" y="660" as="sourcePoint" />
            <mxPoint x="960" y="680" as="targetPoint" />
            <Array as="points">
              <mxPoint x="1160" y="780" />
            </Array>
          </mxGeometry>
        </mxCell>
        <mxCell id="FcauZY5X2lJRklO2oorI-104" value="" style="line;strokeWidth=2;html=1;" vertex="1" parent="1">
          <mxGeometry x="840" y="670" width="160" height="10" as="geometry" />
        </mxCell>
        <mxCell id="FcauZY5X2lJRklO2oorI-105" value="T6" style="text;html=1;strokeColor=none;fillColor=none;align=center;verticalAlign=middle;whiteSpace=wrap;rounded=0;" vertex="1" parent="1">
          <mxGeometry x="1000" y="665" width="40" height="20" as="geometry" />
        </mxCell>
        <mxCell id="FcauZY5X2lJRklO2oorI-106" value="" style="edgeStyle=elbowEdgeStyle;elbow=vertical;endArrow=classic;html=1;strokeColor=#000000;exitX=0.5;exitY=0.5;exitDx=0;exitDy=0;exitPerimeter=0;entryX=0.5;entryY=1;entryDx=0;entryDy=0;" edge="1" parent="1" source="FcauZY5X2lJRklO2oorI-104" target="FcauZY5X2lJRklO2oorI-108">
          <mxGeometry width="50" height="50" relative="1" as="geometry">
            <mxPoint x="920" y="665" as="sourcePoint" />
            <mxPoint x="860" y="603" as="targetPoint" />
          </mxGeometry>
        </mxCell>
        <mxCell id="FcauZY5X2lJRklO2oorI-108" value="" style="ellipse;whiteSpace=wrap;html=1;aspect=fixed;" vertex="1" parent="1">
          <mxGeometry x="880" y="540" width="80" height="80" as="geometry" />
        </mxCell>
        <mxCell id="FcauZY5X2lJRklO2oorI-109" value="P7: A_action_end&lt;br&gt;" style="text;html=1;strokeColor=none;fillColor=none;align=center;verticalAlign=middle;whiteSpace=wrap;rounded=0;" vertex="1" parent="1">
          <mxGeometry x="945" y="610" width="40" height="20" as="geometry" />
        </mxCell>
        <mxCell id="FcauZY5X2lJRklO2oorI-112" value="" style="endArrow=classic;html=1;strokeColor=#000000;exitX=0.025;exitY=0.613;exitDx=0;exitDy=0;exitPerimeter=0;" edge="1" parent="1" source="FcauZY5X2lJRklO2oorI-108">
          <mxGeometry width="50" height="50" relative="1" as="geometry">
            <mxPoint x="510" y="770" as="sourcePoint" />
            <mxPoint x="720" y="640" as="targetPoint" />
          </mxGeometry>
        </mxCell>
        <mxCell id="FcauZY5X2lJRklO2oorI-113" value="" style="line;strokeWidth=2;html=1;rotation=-90;" vertex="1" parent="1">
          <mxGeometry x="690" y="630" width="60" height="10" as="geometry" />
        </mxCell>
        <mxCell id="FcauZY5X2lJRklO2oorI-114" value="T7" style="text;html=1;strokeColor=none;fillColor=none;align=center;verticalAlign=middle;whiteSpace=wrap;rounded=0;" vertex="1" parent="1">
          <mxGeometry x="700" y="580" width="40" height="20" as="geometry" />
        </mxCell>
        <mxCell id="FcauZY5X2lJRklO2oorI-116" value="" style="endArrow=classic;html=1;strokeColor=#000000;exitX=0.533;exitY=0.3;exitDx=0;exitDy=0;exitPerimeter=0;" edge="1" parent="1" source="FcauZY5X2lJRklO2oorI-113">
          <mxGeometry width="50" height="50" relative="1" as="geometry">
            <mxPoint x="892" y="599.04" as="sourcePoint" />
            <mxPoint x="550" y="633" as="targetPoint" />
          </mxGeometry>
        </mxCell>
        <mxCell id="FcauZY5X2lJRklO2oorI-117" value="" style="ellipse;whiteSpace=wrap;html=1;aspect=fixed;" vertex="1" parent="1">
          <mxGeometry x="470" y="590" width="80" height="80" as="geometry" />
        </mxCell>
        <mxCell id="FcauZY5X2lJRklO2oorI-118" value="P8: A_turn_wait" style="text;html=1;strokeColor=none;fillColor=none;align=center;verticalAlign=middle;whiteSpace=wrap;rounded=0;" vertex="1" parent="1">
          <mxGeometry x="550" y="650" width="40" height="20" as="geometry" />
        </mxCell>
        <mxCell id="FcauZY5X2lJRklO2oorI-119" value="" style="ellipse;whiteSpace=wrap;html=1;aspect=fixed;" vertex="1" parent="1">
          <mxGeometry x="210" y="310" width="80" height="80" as="geometry" />
        </mxCell>
        <mxCell id="FcauZY5X2lJRklO2oorI-120" value="" style="endArrow=classic;html=1;entryX=0.575;entryY=0.8;entryDx=0;entryDy=0;entryPerimeter=0;" edge="1" parent="1" source="FcauZY5X2lJRklO2oorI-119">
          <mxGeometry width="50" height="50" relative="1" as="geometry">
            <mxPoint x="430" y="380" as="sourcePoint" />
            <mxPoint x="352" y="293" as="targetPoint" />
          </mxGeometry>
        </mxCell>
        <mxCell id="FcauZY5X2lJRklO2oorI-121" value="" style="line;strokeWidth=2;direction=south;html=1;" vertex="1" parent="1">
          <mxGeometry x="350" y="360" width="10" height="40" as="geometry" />
        </mxCell>
        <mxCell id="FcauZY5X2lJRklO2oorI-122" value="" style="endArrow=classic;html=1;exitX=1;exitY=0.5;exitDx=0;exitDy=0;entryX=0.475;entryY=0.8;entryDx=0;entryDy=0;entryPerimeter=0;" edge="1" parent="1" source="FcauZY5X2lJRklO2oorI-119" target="FcauZY5X2lJRklO2oorI-121">
          <mxGeometry width="50" height="50" relative="1" as="geometry">
            <mxPoint x="430" y="380" as="sourcePoint" />
            <mxPoint x="480" y="330" as="targetPoint" />
          </mxGeometry>
        </mxCell>
        <mxCell id="FcauZY5X2lJRklO2oorI-123" value="" style="endArrow=classic;html=1;exitX=0;exitY=0.5;exitDx=0;exitDy=0;entryX=0.429;entryY=0.9;entryDx=0;entryDy=0;entryPerimeter=0;" edge="1" parent="1" source="FcauZY5X2lJRklO2oorI-119" target="FcauZY5X2lJRklO2oorI-124">
          <mxGeometry width="50" height="50" relative="1" as="geometry">
            <mxPoint x="290" y="380" as="sourcePoint" />
            <mxPoint x="130" y="450" as="targetPoint" />
          </mxGeometry>
        </mxCell>
        <mxCell id="FcauZY5X2lJRklO2oorI-124" value="" style="line;strokeWidth=2;html=1;" vertex="1" parent="1">
          <mxGeometry x="150" y="480" width="70" height="10" as="geometry" />
        </mxCell>
        <mxCell id="FcauZY5X2lJRklO2oorI-125" value="" style="line;strokeWidth=2;direction=south;html=1;" vertex="1" parent="1">
          <mxGeometry x="350" y="270" width="10" height="40" as="geometry" />
        </mxCell>
        <mxCell id="FcauZY5X2lJRklO2oorI-126" value="" style="ellipse;whiteSpace=wrap;html=1;aspect=fixed;" vertex="1" parent="1">
          <mxGeometry x="30" y="330" width="80" height="80" as="geometry" />
        </mxCell>
        <mxCell id="FcauZY5X2lJRklO2oorI-127" value="" style="line;strokeWidth=2;direction=south;html=1;rotation=30;" vertex="1" parent="1">
          <mxGeometry x="120" y="380" width="10" height="70" as="geometry" />
        </mxCell>
        <mxCell id="FcauZY5X2lJRklO2oorI-128" value="" style="endArrow=classic;html=1;entryX=0.415;entryY=0.267;entryDx=0;entryDy=0;entryPerimeter=0;exitX=0.457;exitY=0.9;exitDx=0;exitDy=0;exitPerimeter=0;" edge="1" parent="1" source="FcauZY5X2lJRklO2oorI-124" target="FcauZY5X2lJRklO2oorI-127">
          <mxGeometry width="50" height="50" relative="1" as="geometry">
            <mxPoint x="290" y="380" as="sourcePoint" />
            <mxPoint x="340" y="330" as="targetPoint" />
          </mxGeometry>
        </mxCell>
        <mxCell id="FcauZY5X2lJRklO2oorI-129" value="" style="endArrow=classic;html=1;entryX=1;entryY=1;entryDx=0;entryDy=0;" edge="1" parent="1" target="FcauZY5X2lJRklO2oorI-126">
          <mxGeometry width="50" height="50" relative="1" as="geometry">
            <mxPoint x="130" y="410" as="sourcePoint" />
            <mxPoint x="340" y="330" as="targetPoint" />
          </mxGeometry>
        </mxCell>
        <mxCell id="FcauZY5X2lJRklO2oorI-130" value="" style="ellipse;whiteSpace=wrap;html=1;aspect=fixed;" vertex="1" parent="1">
          <mxGeometry x="260" y="190" width="80" height="80" as="geometry" />
        </mxCell>
        <mxCell id="FcauZY5X2lJRklO2oorI-131" value="T2" style="text;html=1;strokeColor=none;fillColor=none;align=center;verticalAlign=middle;whiteSpace=wrap;rounded=0;" vertex="1" parent="1">
          <mxGeometry x="340" y="405" width="40" height="20" as="geometry" />
        </mxCell>
        <mxCell id="FcauZY5X2lJRklO2oorI-132" value="T1" style="text;html=1;strokeColor=none;fillColor=none;align=center;verticalAlign=middle;whiteSpace=wrap;rounded=0;" vertex="1" parent="1">
          <mxGeometry x="340" y="250" width="40" height="20" as="geometry" />
        </mxCell>
        <mxCell id="FcauZY5X2lJRklO2oorI-133" value="" style="endArrow=classic;html=1;entryX=0.337;entryY=0.121;entryDx=0;entryDy=0;entryPerimeter=0;exitX=0.025;exitY=0.638;exitDx=0;exitDy=0;exitPerimeter=0;fillColor=#f8cecc;strokeColor=#FF0000;" edge="1" parent="1" source="FcauZY5X2lJRklO2oorI-130" target="FcauZY5X2lJRklO2oorI-127">
          <mxGeometry width="50" height="50" relative="1" as="geometry">
            <mxPoint x="510" y="380" as="sourcePoint" />
            <mxPoint x="560" y="330" as="targetPoint" />
          </mxGeometry>
        </mxCell>
        <mxCell id="FcauZY5X2lJRklO2oorI-134" value="P1: A_turn_ready&lt;br&gt;" style="text;html=1;strokeColor=none;fillColor=none;align=center;verticalAlign=middle;whiteSpace=wrap;rounded=0;" vertex="1" parent="1">
          <mxGeometry x="230" y="405" width="40" height="20" as="geometry" />
        </mxCell>
        <mxCell id="FcauZY5X2lJRklO2oorI-135" value="P19: A_HP" style="text;html=1;strokeColor=none;fillColor=none;align=center;verticalAlign=middle;whiteSpace=wrap;rounded=0;" vertex="1" parent="1">
          <mxGeometry x="280" y="160" width="40" height="20" as="geometry" />
        </mxCell>
        <mxCell id="FcauZY5X2lJRklO2oorI-136" value="P21: A_Wins" style="text;html=1;strokeColor=none;fillColor=none;align=center;verticalAlign=middle;whiteSpace=wrap;rounded=0;" vertex="1" parent="1">
          <mxGeometry x="50" y="420" width="40" height="20" as="geometry" />
        </mxCell>
        <mxCell id="FcauZY5X2lJRklO2oorI-137" value="&lt;font&gt;&lt;font style=&quot;font-size: 20px&quot; color=&quot;#ff0000&quot;&gt;6&lt;/font&gt;&lt;br&gt;&lt;/font&gt;" style="text;html=1;strokeColor=none;fillColor=none;align=center;verticalAlign=middle;whiteSpace=wrap;rounded=0;" vertex="1" parent="1">
          <mxGeometry x="135" y="300" width="85" height="40" as="geometry" />
        </mxCell>
        <mxCell id="FcauZY5X2lJRklO2oorI-138" value="" style="ellipse;whiteSpace=wrap;html=1;aspect=fixed;" vertex="1" parent="1">
          <mxGeometry x="430" y="250" width="80" height="80" as="geometry" />
        </mxCell>
        <mxCell id="FcauZY5X2lJRklO2oorI-139" value="" style="endArrow=classic;html=1;exitX=0.45;exitY=0.5;exitDx=0;exitDy=0;exitPerimeter=0;entryX=0;entryY=0.5;entryDx=0;entryDy=0;" edge="1" parent="1" source="FcauZY5X2lJRklO2oorI-125" target="FcauZY5X2lJRklO2oorI-138">
          <mxGeometry width="50" height="50" relative="1" as="geometry">
            <mxPoint x="460" y="330" as="sourcePoint" />
            <mxPoint x="510" y="280" as="targetPoint" />
          </mxGeometry>
        </mxCell>
        <mxCell id="FcauZY5X2lJRklO2oorI-140" value="P2: A_attack" style="text;html=1;strokeColor=none;fillColor=none;align=center;verticalAlign=middle;whiteSpace=wrap;rounded=0;" vertex="1" parent="1">
          <mxGeometry x="450" y="220" width="40" height="20" as="geometry" />
        </mxCell>
        <mxCell id="FcauZY5X2lJRklO2oorI-141" value="" style="endArrow=classic;html=1;strokeColor=#000000;exitX=0.6;exitY=0.5;exitDx=0;exitDy=0;exitPerimeter=0;entryX=0;entryY=0.5;entryDx=0;entryDy=0;" edge="1" parent="1" source="FcauZY5X2lJRklO2oorI-121" target="FcauZY5X2lJRklO2oorI-142">
          <mxGeometry width="50" height="50" relative="1" as="geometry">
            <mxPoint x="359" y="383" as="sourcePoint" />
            <mxPoint x="460" y="383" as="targetPoint" />
          </mxGeometry>
        </mxCell>
        <mxCell id="FcauZY5X2lJRklO2oorI-142" value="" style="ellipse;whiteSpace=wrap;html=1;aspect=fixed;" vertex="1" parent="1">
          <mxGeometry x="430" y="345" width="80" height="80" as="geometry" />
        </mxCell>
        <mxCell id="FcauZY5X2lJRklO2oorI-143" value="P3: A_critical_attack" style="text;html=1;strokeColor=none;fillColor=none;align=center;verticalAlign=middle;whiteSpace=wrap;rounded=0;" vertex="1" parent="1">
          <mxGeometry x="450" y="430" width="40" height="20" as="geometry" />
        </mxCell>
        <mxCell id="FcauZY5X2lJRklO2oorI-144" value="" style="line;strokeWidth=2;direction=south;html=1;" vertex="1" parent="1">
          <mxGeometry x="580" y="360" width="10" height="40" as="geometry" />
        </mxCell>
        <mxCell id="FcauZY5X2lJRklO2oorI-145" style="edgeStyle=orthogonalEdgeStyle;rounded=0;orthogonalLoop=1;jettySize=auto;html=1;entryX=0;entryY=0.5;entryDx=0;entryDy=0;strokeColor=#000000;exitX=0.25;exitY=0.5;exitDx=0;exitDy=0;exitPerimeter=0;" edge="1" parent="1" source="FcauZY5X2lJRklO2oorI-146" target="FcauZY5X2lJRklO2oorI-154">
          <mxGeometry relative="1" as="geometry">
            <mxPoint x="758" y="382" as="sourcePoint" />
            <mxPoint x="814" y="382" as="targetPoint" />
          </mxGeometry>
        </mxCell>
        <mxCell id="FcauZY5X2lJRklO2oorI-146" value="" style="line;strokeWidth=2;direction=south;html=1;" vertex="1" parent="1">
          <mxGeometry x="750" y="360" width="10" height="40" as="geometry" />
        </mxCell>
        <mxCell id="FcauZY5X2lJRklO2oorI-147" value="" style="endArrow=classic;html=1;strokeColor=#000000;exitX=1;exitY=0.5;exitDx=0;exitDy=0;entryX=0.55;entryY=0.6;entryDx=0;entryDy=0;entryPerimeter=0;" edge="1" parent="1" source="FcauZY5X2lJRklO2oorI-142" target="FcauZY5X2lJRklO2oorI-144">
          <mxGeometry width="50" height="50" relative="1" as="geometry">
            <mxPoint x="365" y="394" as="sourcePoint" />
            <mxPoint x="587" y="380" as="targetPoint" />
          </mxGeometry>
        </mxCell>
        <mxCell id="FcauZY5X2lJRklO2oorI-148" value="T3" style="text;html=1;strokeColor=none;fillColor=none;align=center;verticalAlign=middle;whiteSpace=wrap;rounded=0;" vertex="1" parent="1">
          <mxGeometry x="565" y="400" width="40" height="20" as="geometry" />
        </mxCell>
        <mxCell id="FcauZY5X2lJRklO2oorI-149" value="" style="ellipse;whiteSpace=wrap;html=1;aspect=fixed;" vertex="1" parent="1">
          <mxGeometry x="630" y="340" width="80" height="80" as="geometry" />
        </mxCell>
        <mxCell id="FcauZY5X2lJRklO2oorI-150" value="" style="endArrow=classic;html=1;strokeColor=#000000;exitX=0.55;exitY=0.7;exitDx=0;exitDy=0;entryX=0;entryY=0.5;entryDx=0;entryDy=0;exitPerimeter=0;" edge="1" parent="1" source="FcauZY5X2lJRklO2oorI-144" target="FcauZY5X2lJRklO2oorI-149">
          <mxGeometry width="50" height="50" relative="1" as="geometry">
            <mxPoint x="520" y="395" as="sourcePoint" />
            <mxPoint x="594" y="392" as="targetPoint" />
          </mxGeometry>
        </mxCell>
        <mxCell id="FcauZY5X2lJRklO2oorI-151" value="" style="endArrow=classic;html=1;strokeColor=#000000;entryX=0.475;entryY=0.3;entryDx=0;entryDy=0;entryPerimeter=0;" edge="1" parent="1" target="FcauZY5X2lJRklO2oorI-146">
          <mxGeometry width="50" height="50" relative="1" as="geometry">
            <mxPoint x="710" y="379" as="sourcePoint" />
            <mxPoint x="630" y="390" as="targetPoint" />
          </mxGeometry>
        </mxCell>
        <mxCell id="FcauZY5X2lJRklO2oorI-152" value="&lt;font color=&quot;#ff0000&quot;&gt;T18&lt;/font&gt;" style="text;html=1;strokeColor=none;fillColor=none;align=center;verticalAlign=middle;whiteSpace=wrap;rounded=0;" vertex="1" parent="1">
          <mxGeometry x="735" y="400" width="40" height="20" as="geometry" />
        </mxCell>
        <mxCell id="FcauZY5X2lJRklO2oorI-153" value="&lt;font color=&quot;#ff0000&quot;&gt;P17:&amp;nbsp;&lt;br&gt;check_B_HP&lt;/font&gt;" style="text;html=1;strokeColor=none;fillColor=none;align=center;verticalAlign=middle;whiteSpace=wrap;rounded=0;" vertex="1" parent="1">
          <mxGeometry x="650" y="425" width="40" height="20" as="geometry" />
        </mxCell>
        <mxCell id="FcauZY5X2lJRklO2oorI-154" value="" style="ellipse;whiteSpace=wrap;html=1;aspect=fixed;" vertex="1" parent="1">
          <mxGeometry x="820" y="340" width="80" height="80" as="geometry" />
        </mxCell>
        <mxCell id="FcauZY5X2lJRklO2oorI-155" value="P4: A_critical_attack_judgement" style="text;html=1;strokeColor=none;fillColor=none;align=center;verticalAlign=middle;whiteSpace=wrap;rounded=0;" vertex="1" parent="1">
          <mxGeometry x="850" y="425" width="40" height="20" as="geometry" />
        </mxCell>
        <mxCell id="FcauZY5X2lJRklO2oorI-156" value="" style="ellipse;whiteSpace=wrap;html=1;aspect=fixed;" vertex="1" parent="1">
          <mxGeometry x="1040" y="395" width="80" height="80" as="geometry" />
        </mxCell>
        <mxCell id="FcauZY5X2lJRklO2oorI-157" value="" style="endArrow=classic;html=1;strokeColor=#000000;exitX=1;exitY=0.5;exitDx=0;exitDy=0;entryX=0.525;entryY=0.5;entryDx=0;entryDy=0;entryPerimeter=0;" edge="1" parent="1" source="FcauZY5X2lJRklO2oorI-154" target="FcauZY5X2lJRklO2oorI-160">
          <mxGeometry width="50" height="50" relative="1" as="geometry">
            <mxPoint x="960" y="270" as="sourcePoint" />
            <mxPoint x="970" y="330" as="targetPoint" />
          </mxGeometry>
        </mxCell>
        <mxCell id="FcauZY5X2lJRklO2oorI-158" value="" style="endArrow=classic;html=1;strokeColor=#000000;exitX=1;exitY=0.5;exitDx=0;exitDy=0;entryX=0.575;entryY=0.6;entryDx=0;entryDy=0;entryPerimeter=0;" edge="1" parent="1" source="FcauZY5X2lJRklO2oorI-154" target="FcauZY5X2lJRklO2oorI-161">
          <mxGeometry width="50" height="50" relative="1" as="geometry">
            <mxPoint x="910" y="390" as="sourcePoint" />
            <mxPoint x="970" y="410" as="targetPoint" />
          </mxGeometry>
        </mxCell>
        <mxCell id="FcauZY5X2lJRklO2oorI-159" value="" style="ellipse;whiteSpace=wrap;html=1;aspect=fixed;" vertex="1" parent="1">
          <mxGeometry x="1040" y="290" width="80" height="80" as="geometry" />
        </mxCell>
        <mxCell id="FcauZY5X2lJRklO2oorI-160" value="" style="line;strokeWidth=2;direction=south;html=1;" vertex="1" parent="1">
          <mxGeometry x="970" y="310" width="10" height="40" as="geometry" />
        </mxCell>
        <mxCell id="FcauZY5X2lJRklO2oorI-161" value="" style="line;strokeWidth=2;direction=south;html=1;" vertex="1" parent="1">
          <mxGeometry x="970" y="390" width="10" height="40" as="geometry" />
        </mxCell>
        <mxCell id="FcauZY5X2lJRklO2oorI-162" value="T5" style="text;html=1;strokeColor=none;fillColor=none;align=center;verticalAlign=middle;whiteSpace=wrap;rounded=0;" vertex="1" parent="1">
          <mxGeometry x="955" y="430" width="40" height="20" as="geometry" />
        </mxCell>
        <mxCell id="FcauZY5X2lJRklO2oorI-163" value="T4" style="text;html=1;strokeColor=none;fillColor=none;align=center;verticalAlign=middle;whiteSpace=wrap;rounded=0;" vertex="1" parent="1">
          <mxGeometry x="955" y="290" width="40" height="20" as="geometry" />
        </mxCell>
        <mxCell id="FcauZY5X2lJRklO2oorI-164" value="" style="endArrow=classic;html=1;strokeColor=#000000;entryX=0;entryY=0.5;entryDx=0;entryDy=0;exitX=0.5;exitY=0.6;exitDx=0;exitDy=0;exitPerimeter=0;" edge="1" parent="1" source="FcauZY5X2lJRklO2oorI-160" target="FcauZY5X2lJRklO2oorI-159">
          <mxGeometry width="50" height="50" relative="1" as="geometry">
            <mxPoint x="977" y="330" as="sourcePoint" />
            <mxPoint x="985" y="341" as="targetPoint" />
          </mxGeometry>
        </mxCell>
        <mxCell id="FcauZY5X2lJRklO2oorI-165" value="" style="endArrow=classic;html=1;strokeColor=#000000;entryX=0;entryY=0.5;entryDx=0;entryDy=0;exitX=0.25;exitY=0.5;exitDx=0;exitDy=0;exitPerimeter=0;" edge="1" parent="1" source="FcauZY5X2lJRklO2oorI-161" target="FcauZY5X2lJRklO2oorI-156">
          <mxGeometry width="50" height="50" relative="1" as="geometry">
            <mxPoint x="984" y="340" as="sourcePoint" />
            <mxPoint x="1050" y="340" as="targetPoint" />
          </mxGeometry>
        </mxCell>
        <mxCell id="FcauZY5X2lJRklO2oorI-166" value="P5: A_critical_attack_succeeds&lt;br&gt;" style="text;html=1;strokeColor=none;fillColor=none;align=center;verticalAlign=middle;whiteSpace=wrap;rounded=0;" vertex="1" parent="1">
          <mxGeometry x="1180" y="325" width="40" height="20" as="geometry" />
        </mxCell>
        <mxCell id="FcauZY5X2lJRklO2oorI-167" value="P6: A_critical_attack_fails" style="text;html=1;strokeColor=none;fillColor=none;align=center;verticalAlign=middle;whiteSpace=wrap;rounded=0;" vertex="1" parent="1">
          <mxGeometry x="1060" y="490" width="40" height="20" as="geometry" />
        </mxCell>
        <mxCell id="FcauZY5X2lJRklO2oorI-168" value="" style="endArrow=classic;html=1;strokeColor=#000000;exitX=1;exitY=0.5;exitDx=0;exitDy=0;entryX=0.25;entryY=0.5;entryDx=0;entryDy=0;entryPerimeter=0;" edge="1" parent="1" source="FcauZY5X2lJRklO2oorI-138" target="FcauZY5X2lJRklO2oorI-171">
          <mxGeometry width="50" height="50" relative="1" as="geometry">
            <mxPoint x="740" y="280" as="sourcePoint" />
            <mxPoint x="890" y="210" as="targetPoint" />
          </mxGeometry>
        </mxCell>
        <mxCell id="FcauZY5X2lJRklO2oorI-169" value="" style="endArrow=classic;html=1;strokeColor=#000000;exitX=0.5;exitY=0;exitDx=0;exitDy=0;entryX=0.45;entryY=0.6;entryDx=0;entryDy=0;entryPerimeter=0;" edge="1" parent="1" source="FcauZY5X2lJRklO2oorI-159" target="FcauZY5X2lJRklO2oorI-171">
          <mxGeometry width="50" height="50" relative="1" as="geometry">
            <mxPoint x="1020" y="190" as="sourcePoint" />
            <mxPoint x="900" y="210" as="targetPoint" />
          </mxGeometry>
        </mxCell>
        <mxCell id="FcauZY5X2lJRklO2oorI-170" value="" style="endArrow=classic;html=1;strokeColor=#000000;exitX=1;exitY=0.5;exitDx=0;exitDy=0;entryX=0.75;entryY=0.5;entryDx=0;entryDy=0;entryPerimeter=0;" edge="1" parent="1" source="FcauZY5X2lJRklO2oorI-156" target="FcauZY5X2lJRklO2oorI-171">
          <mxGeometry width="50" height="50" relative="1" as="geometry">
            <mxPoint x="1020" y="190" as="sourcePoint" />
            <mxPoint x="970" y="210" as="targetPoint" />
            <Array as="points">
              <mxPoint x="1170" y="310" />
            </Array>
          </mxGeometry>
        </mxCell>
        <mxCell id="FcauZY5X2lJRklO2oorI-171" value="" style="line;strokeWidth=2;html=1;" vertex="1" parent="1">
          <mxGeometry x="850" y="200" width="160" height="10" as="geometry" />
        </mxCell>
        <mxCell id="FcauZY5X2lJRklO2oorI-172" value="T6" style="text;html=1;strokeColor=none;fillColor=none;align=center;verticalAlign=middle;whiteSpace=wrap;rounded=0;" vertex="1" parent="1">
          <mxGeometry x="1010" y="195" width="40" height="20" as="geometry" />
        </mxCell>
        <mxCell id="FcauZY5X2lJRklO2oorI-173" value="" style="edgeStyle=elbowEdgeStyle;elbow=vertical;endArrow=classic;html=1;strokeColor=#000000;exitX=0.5;exitY=0.5;exitDx=0;exitDy=0;exitPerimeter=0;entryX=0.5;entryY=1;entryDx=0;entryDy=0;" edge="1" parent="1" source="FcauZY5X2lJRklO2oorI-171">
          <mxGeometry width="50" height="50" relative="1" as="geometry">
            <mxPoint x="930" y="195" as="sourcePoint" />
            <mxPoint x="930" y="150" as="targetPoint" />
          </mxGeometry>
        </mxCell>
        <mxCell id="FcauZY5X2lJRklO2oorI-174" value="P7: A_action_end&lt;br&gt;" style="text;html=1;strokeColor=none;fillColor=none;align=center;verticalAlign=middle;whiteSpace=wrap;rounded=0;" vertex="1" parent="1">
          <mxGeometry x="955" y="140" width="40" height="20" as="geometry" />
        </mxCell>
        <mxCell id="FcauZY5X2lJRklO2oorI-175" value="" style="endArrow=classic;html=1;strokeColor=#000000;exitX=0.025;exitY=0.613;exitDx=0;exitDy=0;exitPerimeter=0;" edge="1" parent="1">
          <mxGeometry width="50" height="50" relative="1" as="geometry">
            <mxPoint x="892" y="119.03999999999996" as="sourcePoint" />
            <mxPoint x="730" y="170" as="targetPoint" />
          </mxGeometry>
        </mxCell>
        <mxCell id="FcauZY5X2lJRklO2oorI-176" value="" style="line;strokeWidth=2;html=1;rotation=-90;" vertex="1" parent="1">
          <mxGeometry x="700" y="160" width="60" height="10" as="geometry" />
        </mxCell>
        <mxCell id="FcauZY5X2lJRklO2oorI-177" value="T7" style="text;html=1;strokeColor=none;fillColor=none;align=center;verticalAlign=middle;whiteSpace=wrap;rounded=0;" vertex="1" parent="1">
          <mxGeometry x="710" y="110" width="40" height="20" as="geometry" />
        </mxCell>
        <mxCell id="FcauZY5X2lJRklO2oorI-178" value="" style="endArrow=classic;html=1;strokeColor=#000000;exitX=0.533;exitY=0.3;exitDx=0;exitDy=0;exitPerimeter=0;" edge="1" parent="1" source="FcauZY5X2lJRklO2oorI-176">
          <mxGeometry width="50" height="50" relative="1" as="geometry">
            <mxPoint x="902" y="129.03999999999996" as="sourcePoint" />
            <mxPoint x="560" y="163" as="targetPoint" />
          </mxGeometry>
        </mxCell>
        <mxCell id="FcauZY5X2lJRklO2oorI-179" value="" style="ellipse;whiteSpace=wrap;html=1;aspect=fixed;" vertex="1" parent="1">
          <mxGeometry x="480" y="120" width="80" height="80" as="geometry" />
        </mxCell>
        <mxCell id="FcauZY5X2lJRklO2oorI-180" value="P8: A_turn_wait" style="text;html=1;strokeColor=none;fillColor=none;align=center;verticalAlign=middle;whiteSpace=wrap;rounded=0;" vertex="1" parent="1">
          <mxGeometry x="560" y="180" width="40" height="20" as="geometry" />
        </mxCell>
        <mxCell id="FcauZY5X2lJRklO2oorI-181" value="" style="edgeStyle=elbowEdgeStyle;elbow=vertical;endArrow=classic;html=1;strokeColor=#000000;exitX=0;exitY=0.363;exitDx=0;exitDy=0;exitPerimeter=0;entryX=0;entryY=1;entryDx=0;entryDy=0;" edge="1" parent="1" source="FcauZY5X2lJRklO2oorI-117" target="FcauZY5X2lJRklO2oorI-126">
          <mxGeometry width="50" height="50" relative="1" as="geometry">
            <mxPoint x="740" y="550" as="sourcePoint" />
            <mxPoint x="790" y="500" as="targetPoint" />
            <Array as="points">
              <mxPoint x="260" y="610" />
            </Array>
          </mxGeometry>
        </mxCell>
      </root>
    </mxGraphModel>
  </diagram>
</mxfile>
